<svg t="1577631535893" class="icon" viewBox="0 0 1024 1024" version="1.1" xmlns="http://www.w3.org/2000/svg" p-id="4111" width="64" height="64"><path d="M120 212.2m-43.2 0a43.2 43.2 0 1 0 86.4 0 43.2 43.2 0 1 0-86.4 0Z" p-id="4112" fill="#23252c"></path><path d="M894.6 255.4H298.1c-23.8 0-43.2-19.4-43.2-43.2 0-23.8 19.4-43.2 43.2-43.2h596.5c23.8 0 43.2 19.4 43.2 43.2 0 23.7-19.4 43.2-43.2 43.2z" p-id="4113" fill="#23252c"></path><path d="M120 510.4m-43.2 0a43.2 43.2 0 1 0 86.4 0 43.2 43.2 0 1 0-86.4 0Z" p-id="4114" fill="#23252c"></path><path d="M894.6 553.6H298.1c-23.8 0-43.2-19.4-43.2-43.2 0-23.8 19.4-43.2 43.2-43.2h596.5c23.8 0 43.2 19.4 43.2 43.2 0 23.8-19.4 43.2-43.2 43.2z" p-id="4115" fill="#23252c"></path><path d="M120 808.7m-43.2 0a43.2 43.2 0 1 0 86.4 0 43.2 43.2 0 1 0-86.4 0Z" p-id="4116" fill="#23252c"></path><path d="M894.6 851.9H298.1c-23.8 0-43.2-19.4-43.2-43.2 0-23.8 19.4-43.2 43.2-43.2h596.5c23.8 0 43.2 19.4 43.2 43.2 0 23.7-19.4 43.2-43.2 43.2z" p-id="4117" fill="#23252c"></path></svg>