<svg t="1577633703822" class="icon" viewBox="0 0 1024 1024" version="1.1" xmlns="http://www.w3.org/2000/svg" p-id="6113" width="64" height="64"><path d="M938.154667 697.514667c2.389333-4.778667 2.389333-9.557333 4.778666-14.336 57.429333-224.938667-78.976-488.106667-313.472-626.901334 102.912 138.794667 143.573333 303.872 107.690667 452.224-2.389333 11.946667-7.168 26.325333-11.946667 38.272a220.714667 220.714667 0 0 1-19.2-11.946666S473.941333 391.253333 225.152 140.032c-7.210667-7.168 133.973333 200.96 291.882667 366.08-74.154667-43.093333-284.714667-193.792-416.341334-315.861333 14.378667 26.325333 35.925333 52.650667 57.429334 78.976 110.08 141.184 253.653333 313.429333 425.941333 445.013333-122.026667 74.24-291.925333 78.976-464.213333 0-43.093333-19.114667-78.933333-43.050667-119.637334-71.765333 71.765333 112.469333 184.234667 215.381333 318.250667 270.378666 160.298667 69.418667 322.986667 64.64 440.234667 0h2.432c4.778667-2.389333 9.557333-4.778667 14.336-9.557333 57.429333-28.714667 169.898667-59.818667 232.106666 59.818667 16.725333 33.493333 47.829333-122.026667-69.376-265.6z" fill="#fb4835" p-id="6114"></path></svg>